<mxfile host="app.diagrams.net" modified="2020-12-14T04:09:22.276Z" agent="5.0 (Windows)" etag="U2HAtG2-x5qGfyewALvB" version="14.0.1" type="github">
  <diagram id="Yume8OBUcKfEvlyxWnCj" name="Page-1">
    <mxGraphModel dx="782" dy="404" grid="1" gridSize="10" guides="1" tooltips="1" connect="1" arrows="1" fold="1" page="1" pageScale="1" pageWidth="850" pageHeight="1100" math="0" shadow="0">
      <root>
        <mxCell id="0" />
        <mxCell id="1" parent="0" />
        <mxCell id="rHvMlpuuhFo9y_7ITMjo-1" value="aaa" style="ellipse;whiteSpace=wrap;html=1;aspect=fixed;" vertex="1" parent="1">
          <mxGeometry x="160" y="150" width="80" height="80" as="geometry" />
        </mxCell>
      </root>
    </mxGraphModel>
  </diagram>
</mxfile>
